<svg xmlns="http://www.w3.org/2000/svg" viewBox="0 0 360 490" role="img" aria-labelledby="diagram-title diagram-desc">
<title id="diagram-title">Kustomize 环境配置</title><desc id="diagram-desc">用 base 与 overlay 复用 Kubernetes 清单，预览变更后部署开发环境。</desc>
<defs><pattern id="grid" width="32" height="32" patternUnits="userSpaceOnUse"><path d="M32 0 L0 0 0 32" fill="none" stroke="#1e293b" stroke-width=".6"/></pattern>
<marker id="arrow" markerWidth="9" markerHeight="7" refX="8" refY="3.5" orient="auto"><path d="M0 0 L9 3.5 L0 7Z" fill="#94a3b8"/></marker></defs>
<rect width="360" height="490" rx="16" fill="#0f172a"/><rect width="360" height="490" rx="16" fill="url(#grid)"/>
<text x="24" y="29" fill="#f8fafc" font-family="'PingFang SC','Noto Sans SC',sans-serif" font-size="17" font-weight="700">Kustomize 环境配置</text>
<text x="24" y="51" fill="#94a3b8" font-family="'PingFang SC','Noto Sans SC',sans-serif" font-size="11.5">基础资源与环境覆盖</text>
<rect x="24" y="82" width="148" height="90" rx="10" fill="#152338" stroke="#22d3ee" stroke-width="1.4"/>
<text x="98.0" y="123.0" text-anchor="middle" font-family="'PingFang SC','Noto Sans SC',sans-serif" font-size="14" fill="#f8fafc" font-weight="700">base</text>
<text x="98.0" y="139.0" text-anchor="middle" font-family="'PingFang SC','Noto Sans SC',sans-serif" font-size="12" fill="#cbd5e1">通用资源</text>
<rect x="188" y="82" width="148" height="90" rx="10" fill="#152338" stroke="#34d399" stroke-width="1.4"/>
<text x="262.0" y="123.0" text-anchor="middle" font-family="'PingFang SC','Noto Sans SC',sans-serif" font-size="14" fill="#f8fafc" font-weight="700">overlay</text>
<text x="262.0" y="139.0" text-anchor="middle" font-family="'PingFang SC','Noto Sans SC',sans-serif" font-size="12" fill="#cbd5e1">环境补丁</text>
<path d="M98 172 V208 H180 V242" fill="none" stroke="#22d3ee" stroke-width="1.8" marker-end="url(#arrow)"/>
<path d="M262 172 V208 H180 V242" fill="none" stroke="#34d399" stroke-width="1.8" marker-end="url(#arrow)"/>
<rect x="24" y="242" width="312" height="66" rx="10" fill="#152338" stroke="#a78bfa" stroke-width="1.4"/>
<text x="180.0" y="271.0" text-anchor="middle" font-family="'PingFang SC','Noto Sans SC',sans-serif" font-size="14" fill="#f8fafc" font-weight="700">kustomize build</text>
<text x="180.0" y="287.0" text-anchor="middle" font-family="'PingFang SC','Noto Sans SC',sans-serif" font-size="12" fill="#cbd5e1">合成最终清单</text>
<path d="M180 308 V362" fill="none" stroke="#64748b" stroke-width="1.8" marker-end="url(#arrow)"/>
<rect x="24" y="362" width="312" height="66" rx="10" fill="#152338" stroke="#fbbf24" stroke-width="1.4"/>
<text x="180.0" y="391.0" text-anchor="middle" font-family="'PingFang SC','Noto Sans SC',sans-serif" font-size="14" fill="#f8fafc" font-weight="700">kubectl apply</text>
<text x="180.0" y="407.0" text-anchor="middle" font-family="'PingFang SC','Noto Sans SC',sans-serif" font-size="12" fill="#cbd5e1">应用到指定集群</text>
<line x1="24" y1="455" x2="336" y2="455" stroke="#334155"/>
<text x="24" y="475" fill="#94a3b8" font-family="'PingFang SC','Noto Sans SC',sans-serif" font-size="10">costalong.com · Kubernetes 笔记</text></svg>
