<svg xmlns="http://www.w3.org/2000/svg" viewBox="0 0 360 515" role="img" aria-labelledby="diagram-title diagram-desc">
<title id="diagram-title">emptyDir 临时卷</title><desc id="diagram-desc">让同一 Pod 的两个容器共享文件，并验证删除 Pod 后 emptyDir 数据消失。</desc>
<defs><pattern id="grid" width="32" height="32" patternUnits="userSpaceOnUse"><path d="M32 0 L0 0 0 32" fill="none" stroke="#1e293b" stroke-width=".6"/></pattern>
<marker id="arrow" markerWidth="9" markerHeight="7" refX="8" refY="3.5" orient="auto"><path d="M0 0 L9 3.5 L0 7Z" fill="#94a3b8"/></marker></defs>
<rect width="360" height="515" rx="16" fill="#0f172a"/><rect width="360" height="515" rx="16" fill="url(#grid)"/>
<text x="24" y="29" fill="#f8fafc" font-family="'PingFang SC','Noto Sans SC',sans-serif" font-size="17" font-weight="700">emptyDir 临时卷</text>
<text x="24" y="51" fill="#94a3b8" font-family="'PingFang SC','Noto Sans SC',sans-serif" font-size="11.5">操作顺序与检查点</text>
<path d="M180 94 V479" stroke="#64748b" stroke-width="2" fill="none"/>
<circle cx="180" cy="127" r="6" fill="#22d3ee"/>
<rect x="24" y="88" width="148" height="78" rx="10" fill="#152338" stroke="#22d3ee" stroke-width="1.4"/>
<text x="98.0" y="131.0" text-anchor="middle" font-family="'PingFang SC','Noto Sans SC',sans-serif" font-size="14" fill="#f8fafc" font-weight="700">Pod 分配到节点</text>
<circle cx="180" cy="226" r="6" fill="#34d399"/>
<rect x="188" y="187" width="148" height="78" rx="10" fill="#152338" stroke="#34d399" stroke-width="1.4"/>
<text x="262.0" y="230.0" text-anchor="middle" font-family="'PingFang SC','Noto Sans SC',sans-serif" font-size="14" fill="#f8fafc" font-weight="700">创建 emptyDir</text>
<circle cx="180" cy="325" r="6" fill="#a78bfa"/>
<rect x="24" y="286" width="148" height="78" rx="10" fill="#152338" stroke="#a78bfa" stroke-width="1.4"/>
<text x="98.0" y="329.0" text-anchor="middle" font-family="'PingFang SC','Noto Sans SC',sans-serif" font-size="14" fill="#f8fafc" font-weight="700">容器挂载共享</text>
<circle cx="180" cy="424" r="6" fill="#fbbf24"/>
<rect x="188" y="385" width="148" height="78" rx="10" fill="#152338" stroke="#fbbf24" stroke-width="1.4"/>
<text x="262.0" y="428.0" text-anchor="middle" font-family="'PingFang SC','Noto Sans SC',sans-serif" font-size="14" fill="#f8fafc" font-weight="700">Pod 删除时清理</text>
<line x1="24" y1="480" x2="336" y2="480" stroke="#334155"/>
<text x="24" y="500" fill="#94a3b8" font-family="'PingFang SC','Noto Sans SC',sans-serif" font-size="10">costalong.com · Kubernetes 笔记</text></svg>
